<svg height="452pt" viewBox="0 0 452.28248 452" width="452pt" xmlns="http://www.w3.org/2000/svg"><path d="m422.84375 22.808594s6.8125 25.320312 26.441406 26.492187c0 0-26.199218 9.050781-26.640625 28.40625 0 0-5.160156-27.144531-25.851562-28.121093 0 0 24.101562-3.648438 26.050781-26.777344zm0 0" fill="#d7e057"/><path d="m422.640625 80.707031c-1.425781 0-2.667969-1.015625-2.945313-2.4375-.046874-.246093-4.988281-24.835937-23.042968-25.683593-1.542969-.074219-2.777344-1.300782-2.855469-2.839844-.082031-1.542969 1.019531-2.890625 2.546875-3.121094.878906-.140625 21.785156-3.636719 23.507812-24.066406.121094-1.453125 1.269532-2.601563 2.714844-2.734375 1.46875-.117188 2.789063.796875 3.167969 2.203125.0625.230468 6.519531 23.25 23.726563 24.28125 1.429687.085937 2.597656 1.167968 2.792968 2.585937.195313 1.417969-.636718 2.777344-1.988281 3.246094-.242187.082031-24.234375 8.617187-24.625 25.636719-.035156 1.535156-1.21875 2.792968-2.75 2.917968-.082031.007813-.164063.011719-.25.011719zm-15.480469-31.460937c7.753906 3.9375 12.460938 11.492187 15.175782 17.75 4.050781-8.039063 11.878906-13.574219 17.894531-16.851563-8.269531-3.683593-13.566407-11.304687-16.667969-17.445312-3.585938 8.722656-10.539062 13.738281-16.402344 16.546875zm0 0" fill="#3a312a"/><path d="m379.445312 56.769531s4.820313 17.90625 18.703126 18.738281c0 0-18.53125 6.402344-18.84375 20.089844 0 0-3.648438-19.199218-18.285157-19.886718 0 0 17.046875-2.582032 18.425781-18.941407zm0 0" fill="#d7e057"/><path d="m379.300781 98.601562c-1.425781 0-2.671875-1.015624-2.945312-2.441406-.03125-.164062-3.40625-16.882812-15.476563-17.449218-1.542968-.074219-2.777344-1.304688-2.855468-2.84375-.082032-1.542969 1.019531-2.890626 2.542968-3.121094.59375-.09375 14.726563-2.488282 15.886719-16.230469.121094-1.449219 1.269531-2.605469 2.722656-2.734375 1.445313-.121094 2.78125.796875 3.164063 2.203125.039062.160156 4.453125 15.839844 15.984375 16.527344 1.429687.085937 2.597656 1.171875 2.792969 2.589843.191406 1.417969-.640626 2.777344-1.992188 3.242188-.164062.058594-16.566406 5.90625-16.824219 17.324219-.035156 1.535156-1.222656 2.796875-2.753906 2.921875-.078125.007812-.160156.011718-.246094.011718zm-9.035156-23.054687c4.210937 2.664063 7.042969 6.789063 8.890625 10.558594 2.753906-4.464844 7.035156-7.746094 10.730469-9.945313-4.574219-2.539062-7.769531-6.699218-9.878907-10.449218-2.351562 4.574218-6.035156 7.753906-9.742187 9.835937zm0 0" fill="#3a312a"/><path d="m379.445312 3.457031s4.820313 17.90625 18.703126 18.734375c0 0-18.53125 6.402344-18.84375 20.09375 0 0-3.648438-19.203125-18.285157-19.890625 0 .003907 17.046875-2.582031 18.425781-18.9375zm0 0" fill="#d7e057"/><path d="m379.300781 45.285156c-1.425781 0-2.671875-1.015625-2.945312-2.441406-.03125-.164062-3.40625-16.882812-15.476563-17.449219-1.542968-.074219-2.777344-1.304687-2.855468-2.84375-.082032-1.542969 1.019531-2.890625 2.542968-3.121093.59375-.09375 14.726563-2.488282 15.886719-16.226563.121094-1.453125 1.269531-2.605469 2.722656-2.734375 1.445313-.121094 2.78125.796875 3.164063 2.199219.039062.160156 4.453125 15.839843 15.984375 16.527343 1.429687.089844 2.597656 1.171876 2.792969 2.589844.191406 1.417969-.640626 2.773438-1.992188 3.242188-.164062.054687-16.566406 5.902344-16.824219 17.324218-.035156 1.535157-1.222656 2.792969-2.753906 2.921876-.078125.007812-.160156.011718-.246094.011718zm-9.035156-23.054687c4.210937 2.664062 7.042969 6.785156 8.890625 10.558593 2.753906-4.464843 7.035156-7.742187 10.730469-9.945312-4.574219-2.539062-7.769531-6.699219-9.882813-10.449219-2.347656 4.578125-6.03125 7.753907-9.738281 9.835938zm0 0" fill="#3a312a"/><path d="m3 217.523438v197.40625c0 18.894531 15.316406 34.210937 34.210938 34.210937h260.578124c18.894532 0 34.210938-15.316406 34.210938-34.210937v-377.578126c0-18.890624-15.316406-34.210937-34.210938-34.210937h-260.578124c-18.894532 0-34.210938 15.316406-34.210938 34.210937zm0 0" fill="#87796f"/><path d="m297.789062 452.140625h-260.578124c-20.515626 0-37.210938-16.691406-37.210938-37.210937v-197.40625c0-1.65625 1.34375-3 3-3s3 1.34375 3 3v197.40625c0 17.210937 14.003906 31.210937 31.210938 31.210937h260.578124c17.207032 0 31.210938-14 31.210938-31.210937v-377.578126c0-17.207031-14.003906-31.210937-31.210938-31.210937h-260.578124c-17.207032 0-31.210938 14.003906-31.210938 31.210937v152.074219c0 1.660157-1.34375 3-3 3s-3-1.339843-3-3v-152.074219c0-20.519531 16.695312-37.210937 37.210938-37.210937h260.578124c20.519532 0 37.210938 16.691406 37.210938 37.210937v377.578126c0 20.519531-16.695312 37.210937-37.210938 37.210937zm0 0" fill="#3a312a"/><path d="m147.027344 35.140625h-100.003906c-8.390626 0-15.1875 6.800781-15.1875 15.1875v317.625c0 8.386719 6.796874 15.1875 15.1875 15.1875h240.953124c8.390626 0 15.1875-6.800781 15.1875-15.1875v-317.625c0-8.386719-6.796874-15.1875-15.1875-15.1875zm0 0" fill="#fce8cb"/><path d="m287.976562 386.140625h-240.953124c-10.03125 0-18.1875-8.160156-18.1875-18.1875v-317.625c0-10.027344 8.15625-18.1875 18.1875-18.1875h100.003906c1.65625 0 3 1.34375 3 3 0 1.660156-1.34375 3-3 3h-100.003906c-6.722657 0-12.1875 5.46875-12.1875 12.1875v317.625c0 6.71875 5.464843 12.1875 12.1875 12.1875h240.957031c6.71875 0 12.1875-5.46875 12.1875-12.1875v-317.625c0-6.71875-5.464844-12.1875-12.1875-12.1875h-114.003907c-1.65625 0-3-1.339844-3-3 0-1.65625 1.34375-3 3-3h114.003907c10.03125 0 18.1875 8.160156 18.1875 18.1875v317.625c-.003907 10.027344-8.160157 18.1875-18.191407 18.1875zm0 0" fill="#3a312a"/><path d="m182.5 417.140625c0 8.835937-7.164062 16-16 16s-16-7.164063-16-16 7.164062-16 16-16 16 7.164063 16 16zm0 0" fill="#f16c7a"/><path d="m166.5 436.140625c-10.476562 0-19-8.523437-19-19s8.523438-19 19-19 19 8.523437 19 19-8.523438 19-19 19zm0-32c-7.167969 0-13 5.832031-13 13s5.832031 13 13 13 13-5.832031 13-13-5.832031-13-13-13zm0 0" fill="#3a312a"/><path d="m441.589844 127.738281-138.472656 271.753907-30.34375-15.335938 138.472656-271.757812zm0 0" fill="#8ac6dd"/><path d="m303.113281 402.492188c-.457031 0-.917969-.105469-1.351562-.324219l-30.34375-15.339844c-.710938-.359375-1.25-.988281-1.496094-1.746094-.25-.757812-.1875-1.582031.175781-2.292969l138.472656-271.753906c.753907-1.472656 2.550782-2.058594 4.03125-1.316406l30.34375 15.339844c.707032.359375 1.25.988281 1.496094 1.746094.25.757812.183594 1.582031-.175781 2.292968l-138.476563 271.753906c-.53125 1.042969-1.582031 1.640626-2.675781 1.640626zm-26.304687-19.65625 24.992187 12.628906 135.75-266.410156-24.992187-12.628907zm0 0" fill="#3a312a"/><path d="m341.78125 248.722656-69.007812 135.433594 30.34375 15.335938 69.007812-135.433594zm0 0" fill="#f16c7a"/><path d="m303.113281 402.492188c-.457031 0-.917969-.105469-1.351562-.324219l-30.34375-15.339844c-.710938-.359375-1.25-.988281-1.496094-1.746094-.25-.757812-.1875-1.582031.175781-2.292969l69.011719-135.433593c.75-1.46875 2.546875-2.058594 4.027344-1.3125l30.34375 15.335937c.710937.359375 1.25.988282 1.496093 1.746094.25.757812.183594 1.582031-.175781 2.292969l-69.011719 135.429687c-.53125 1.046875-1.582031 1.644532-2.675781 1.644532zm-26.304687-19.65625 24.992187 12.628906 66.285157-130.085938-24.988282-12.628906zm0 0" fill="#3a312a"/><path d="m441.589844 127.738281 5.863281-11.601562c4.238281-8.382813.875-18.609375-7.503906-22.839844-8.378907-4.238281-18.605469-.878906-22.839844 7.503906l-5.863281 11.601563zm0 0" fill="#f16c7a"/><path d="m441.589844 130.738281c-.457032 0-.917969-.105469-1.355469-.324219l-30.34375-15.335937c-1.476563-.75-2.070313-2.554687-1.324219-4.03125l5.867188-11.605469c4.972656-9.839844 17.023437-13.804687 26.871094-8.824218 9.84375 4.972656 13.800781 17.027343 8.828124 26.871093l-5.863281 11.601563c-.53125 1.046875-1.585937 1.648437-2.679687 1.648437zm-26.3125-19.664062 24.988281 12.632812 4.511719-8.925781c3.484375-6.890625.707031-15.328125-6.179688-18.808594-6.890625-3.484375-15.324218-.710937-18.808594 6.179688zm0 0" fill="#3a312a"/><path d="m303.117188 399.492188-30.34375-15.335938-4.675782 46.933594zm0 0" fill="#d7e057"/><path d="m268.097656 434.089844c-.460937 0-.925781-.105469-1.355468-.320313-1.105469-.558593-1.753907-1.742187-1.628907-2.976562l4.675781-46.9375c.097657-.984375.671876-1.855469 1.539063-2.332031.867187-.472657 1.914063-.496094 2.796875-.046876l30.34375 15.335938c.882812.445312 1.488281 1.296875 1.621094 2.277344.128906.980468-.230469 1.964844-.964844 2.628906l-35.019531 31.597656c-.5625.511719-1.285157.773438-2.007813.773438zm7.222656-45.285156-3.46875 34.859374 26.007813-23.46875zm0 0" fill="#3a312a"/><path d="m300.171875 50.320312v273.460938l-28.722656 56.359375h-30l28.722656-56.359375v-273.460938c0-6.71875-5.480469-12.179687-12.203125-12.179687h30c6.722656 0 12.203125 5.460937 12.203125 12.179687zm0 0" fill="#decaad"/></svg>